<svg xmlns="http://www.w3.org/2000/svg" display="none" >
<symbol id="facebook" viewBox="0 0 30 30"  xmlns="http://www.w3.org/2000/svg">
<path d="M29 0h-26c-1.65 0-3 1.35-3 3v26c0 1.65 1.35 3 3 3h13v-14h-4v-4h4v-2c0-3.306 2.694-6 6-6h4v4h-4c-1.1 0-2 0.9-2 2v2h6l-1 4h-5v14h9c1.65 0 3-1.35 3-3v-26c0-1.65-1.35-3-3-3z"></path>
</symbol>
<symbol id="instagram"  viewBox="0 0 33 33"  xmlns="http://www.w3.org/2000/svg">
<path d="M16 2.881c4.275 0 4.781 0.019 6.462 0.094 1.563 0.069 2.406 0.331 2.969 0.55 0.744 0.288 1.281 0.638 1.837 1.194 0.563 0.563 0.906 1.094 1.2 1.838 0.219 0.563 0.481 1.412 0.55 2.969 0.075 1.688 0.094 2.194 0.094 6.463s-0.019 4.781-0.094 6.463c-0.069 1.563-0.331 2.406-0.55 2.969-0.288 0.744-0.637 1.281-1.194 1.837-0.563 0.563-1.094 0.906-1.837 1.2-0.563 0.219-1.413 0.481-2.969 0.55-1.688 0.075-2.194 0.094-6.463 0.094s-4.781-0.019-6.463-0.094c-1.563-0.069-2.406-0.331-2.969-0.55-0.744-0.288-1.281-0.637-1.838-1.194-0.563-0.563-0.906-1.094-1.2-1.837-0.219-0.563-0.481-1.413-0.55-2.969-0.075-1.688-0.094-2.194-0.094-6.463s0.019-4.781 0.094-6.463c0.069-1.563 0.331-2.406 0.55-2.969 0.288-0.744 0.638-1.281 1.194-1.838 0.563-0.563 1.094-0.906 1.838-1.2 0.563-0.219 1.412-0.481 2.969-0.55 1.681-0.075 2.188-0.094 6.463-0.094zM16 0c-4.344 0-4.887 0.019-6.594 0.094-1.7 0.075-2.869 0.35-3.881 0.744-1.056 0.412-1.95 0.956-2.837 1.85-0.894 0.888-1.438 1.781-1.85 2.831-0.394 1.019-0.669 2.181-0.744 3.881-0.075 1.713-0.094 2.256-0.094 6.6s0.019 4.887 0.094 6.594c0.075 1.7 0.35 2.869 0.744 3.881 0.413 1.056 0.956 1.95 1.85 2.837 0.887 0.887 1.781 1.438 2.831 1.844 1.019 0.394 2.181 0.669 3.881 0.744 1.706 0.075 2.25 0.094 6.594 0.094s4.888-0.019 6.594-0.094c1.7-0.075 2.869-0.35 3.881-0.744 1.050-0.406 1.944-0.956 2.831-1.844s1.438-1.781 1.844-2.831c0.394-1.019 0.669-2.181 0.744-3.881 0.075-1.706 0.094-2.25 0.094-6.594s-0.019-4.887-0.094-6.594c-0.075-1.7-0.35-2.869-0.744-3.881-0.394-1.063-0.938-1.956-1.831-2.844-0.887-0.887-1.781-1.438-2.831-1.844-1.019-0.394-2.181-0.669-3.881-0.744-1.712-0.081-2.256-0.1-6.6-0.1v0z"></path>
<path d="M16 7.781c-4.537 0-8.219 3.681-8.219 8.219s3.681 8.219 8.219 8.219 8.219-3.681 8.219-8.219c0-4.537-3.681-8.219-8.219-8.219zM16 21.331c-2.944 0-5.331-2.387-5.331-5.331s2.387-5.331 5.331-5.331c2.944 0 5.331 2.387 5.331 5.331s-2.387 5.331-5.331 5.331z"></path>
<path d="M26.462 7.456c0 1.060-0.859 1.919-1.919 1.919s-1.919-0.859-1.919-1.919c0-1.060 0.859-1.919 1.919-1.919s1.919 0.859 1.919 1.919z"></path>
</symbol>
<symbol id="youtube"  viewBox="0 0 34.21 27.51"  xmlns="http://www.w3.org/2000/svg">
<path xmlns="http://www.w3.org/2000/svg" class="cls-3" d="M465.81,406.67a5,5,0,0,0-4.26-3.88,134.59,134.59,0,0,0-24.31,0,5,5,0,0,0-4.26,3.88,42,42,0,0,0-.69,9.32,42.68,42.68,0,0,0,.68,9.33,5,5,0,0,0,4.27,3.88,134.48,134.48,0,0,0,24.3,0,5,5,0,0,0,4.27-3.88,42.69,42.69,0,0,0,.69-9.33,42,42,0,0,0-.69-9.32Zm-20.3,14.19V410.33l10.12,5.28-10.12,5.25Zm-1.21,1.26" transform="translate(-432.29 -402.24)"/>
</symbol>
<symbol id="bubbles"  viewBox="0 0 40 40"  xmlns="http://www.w3.org/2000/svg">
<path d="M15 0v0c8.284 0 15 5.435 15 12.139s-6.716 12.139-15 12.139c-0.796 0-1.576-0.051-2.339-0.147-3.222 3.209-6.943 3.785-10.661 3.869v-0.785c2.008-0.98 3.625-2.765 3.625-4.804 0-0.285-0.022-0.564-0.063-0.837-3.392-2.225-5.562-5.625-5.562-9.434 0-6.704 6.716-12.139 15-12.139zM31.125 27.209c0 1.748 1.135 3.278 2.875 4.118v0.673c-3.223-0.072-6.181-0.566-8.973-3.316-0.661 0.083-1.337 0.126-2.027 0.126-2.983 0-5.732-0.805-7.925-2.157 4.521-0.016 8.789-1.464 12.026-4.084 1.631-1.32 2.919-2.87 3.825-4.605 0.961-1.84 1.449-3.799 1.449-5.825 0-0.326-0.014-0.651-0.039-0.974 2.268 1.873 3.664 4.426 3.664 7.24 0 3.265-1.88 6.179-4.82 8.086-0.036 0.234-0.055 0.474-0.055 0.718z"></path>
<path d="M15 0v0c8.284 0 15 5.435 15 12.139s-6.716 12.139-15 12.139c-0.796 0-1.576-0.051-2.339-0.147-3.222 3.209-6.943 3.785-10.661 3.869v-0.785c2.008-0.98 3.625-2.765 3.625-4.804 0-0.285-0.022-0.564-0.063-0.837-3.392-2.225-5.562-5.625-5.562-9.434 0-6.704 6.716-12.139 15-12.139zM31.125 27.209c0 1.748 1.135 3.278 2.875 4.118v0.673c-3.223-0.072-6.181-0.566-8.973-3.316-0.661 0.083-1.337 0.126-2.027 0.126-2.983 0-5.732-0.805-7.925-2.157 4.521-0.016 8.789-1.464 12.026-4.084 1.631-1.32 2.919-2.87 3.825-4.605 0.961-1.84 1.449-3.799 1.449-5.825 0-0.326-0.014-0.651-0.039-0.974 2.268 1.873 3.664 4.426 3.664 7.24 0 3.265-1.88 6.179-4.82 8.086-0.036 0.234-0.055 0.474-0.055 0.718z"></path>
</symbol>
<symbol id="mail"  viewBox="0 0 40 40"  xmlns="http://www.w3.org/2000/svg">
<path d="M29 4h-26c-1.65 0-3 1.35-3 3v20c0 1.65 1.35 3 3 3h26c1.65 0 3-1.35 3-3v-20c0-1.65-1.35-3-3-3zM12.461 17.199l-8.461 6.59v-15.676l8.461 9.086zM5.512 8h20.976l-10.488 7.875-10.488-7.875zM12.79 17.553l3.21 3.447 3.21-3.447 6.58 8.447h-19.579l6.58-8.447zM19.539 17.199l8.461-9.086v15.676l-8.461-6.59z"></path>
</symbol>
<symbol id="maps"  viewBox="0 0 40 40"  xmlns="http://www.w3.org/2000/svg">
<path d="M16 0c-5.523 0-10 4.477-10 10 0 10 10 22 10 22s10-12 10-22c0-5.523-4.477-10-10-10zM16 16.125c-3.383 0-6.125-2.742-6.125-6.125s2.742-6.125 6.125-6.125 6.125 2.742 6.125 6.125-2.742 6.125-6.125 6.125zM12.125 10c0-2.14 1.735-3.875 3.875-3.875s3.875 1.735 3.875 3.875c0 2.14-1.735 3.875-3.875 3.875s-3.875-1.735-3.875-3.875z"></path>
</symbol>
<symbol id="phone"  viewBox="0 0 40 40"  xmlns="http://www.w3.org/2000/svg">
<path d="M22 20c-2 2-2 4-4 4s-4-2-6-4-4-4-4-6 2-2 4-4-4-8-6-8-6 6-6 6c0 4 4.109 12.109 8 16s12 8 16 8c0 0 6-4 6-6s-6-8-8-6z"></path>
<symbol id="Layer_2" version="1.1" xmlns="http://www.w3.org/2000/svg" xmlns:xlink="http://www.w3.org/1999/xlink" x="0px" y="0px" viewBox="0 0 1000 1000"  xml:space="preserve">
<path xmlns="http://www.w3.org/2000/svg" d="M990,698.1c0,97.9-79.4,177.2-177.2,177.2c-87.2,0-159.5-63-174.3-146H361.5c-14.8,83-87.1,146-174.3,146c-94.4,0-171.3-73.8-176.7-166.8H10V646v-41.7l104.3-146H51.7v-62.6h396.2v62.6l-15.6,26.1l-12.2,20.3l-34.8,57.9h157.5l92.7-166.8l0,0V270.6l0,0H573v-62.6h166.8v1.1c3.4-0.5,6.9-1.1,10.4-1.1c40.3,0,73,32.7,73,73c0,3.3-0.6,6.6-1,9.8l1,0.7l-1.4,3.5c-1.7,9-5.2,17.2-9.9,24.7l-30.4,76.1V500l41.7,20.8l-0.7,0.5C915.8,526.4,990,603.5,990,698.1L990,698.1z M187.2,604.3c-51.8,0-93.8,42-93.8,93.8c0,51.8,42,93.8,93.8,93.8c51.8,0,93.8-42,93.8-93.8C281.1,646.3,239.1,604.3,187.2,604.3L187.2,604.3z M812.8,604.3c-51.8,0-93.8,42-93.8,93.8c0,51.8,42,93.8,93.8,93.8c51.8,0,93.8-42,93.8-93.8C906.6,646.3,864.6,604.3,812.8,604.3L812.8,604.3z M812.8,729.4c-17.3,0-31.3-14-31.3-31.3c0-17.3,14-31.3,31.3-31.3s31.3,14,31.3,31.3C844,715.4,830,729.4,812.8,729.4L812.8,729.4z M187.2,729.4c-17.3,0-31.3-14-31.3-31.3c0-17.3,14-31.3,31.3-31.3c17.3,0,31.3,14,31.3,31.3C218.5,715.4,204.5,729.4,187.2,729.4L187.2,729.4z M427,354H72.6c-11.5,0-20.8-9.3-20.8-20.9V145.5c0-11.5,9.3-20.9,20.8-20.9H427c11.5,0,20.8,9.3,20.8,20.9v187.7C447.9,344.7,438.5,354,427,354L427,354z M364.5,187.2H135.1v41.7h229.4V187.2L364.5,187.2z"/></symbol>
</symbol>

<symbol id="men" version="1.1" xmlns="http://www.w3.org/2000/svg" xmlns:xlink="http://www.w3.org/1999/xlink" x="0px" y="0px" viewBox="0 0 1200 1200"  xml:space="preserve">
<path d="M671.5,255.8c-2-18.3,5.4-78.1,5.7-91.1c0.8-33.6-0.1-36.3-8.1-68.9c0,0-9.8-29.6-25.2-38.7L613.1,52l-18.9-17.6c-76.5-47.2-158.5-14-202.5,3.9c-63.3,20.5-103.3,82.7-75.3,215.5c0.6,2.8,0.4,10.5,0.4,13c-1,2.4,0,0,0,0c-3.7,9.8-12.4,24.4-11.7,32.2c2.5,27.1,3,92.1,28.5,108.1c2.4,1.5,13.8,2,12.7,1.9c12.4,1,12.7,55.6,15.2,81.9c6.4,17.6,21.7,19.5,26.1,44.2c0,0-14.6,0.5-19.5,4.8c-15.5,13.6-24.9,56.4-41.3,67.7c-13.7,3.7-27.5,7.5-41.3,11.3c-48.2,19.8-101.7,43.6-150.1,63.9c-44,18.7-63.6,30-71.6,96.6c0,31.4-1.8,80.6-0.9,121.8h874.5c0.8-41.2-2.1-84-2.1-115.3c-11.6-64.6-26.8-84.4-70.8-103c-48.3-20.3-102-44.2-150.1-63.9c-13.8-3.8-27.5-7.6-41.4-11.3c-16.3-11.3-24.7-55.5-41.2-67.7c-7.1-5.2-17,1.1-26.3-3.9c-3.9-17.6,19.3-30.5,26.3-52.6c6.1-19.6,0.7-44.9,10.5-63.1c6.8-12.5,22.2-12.6,29.9-23.3c6.9-9.9,11.5-26.9,13.8-38.9c4-21.9,2-74.6,1.1-76.2C687,281.8,672.2,261.3,671.5,255.8z"/><path d="M326.7,607.7c-13.7,3.8-27.5,7.5-41.3,11.4c-48.2,19.7-101.7,43.5-150.1,63.9c-44,18.6-63.6,30-71.6,96.6c0,31.3-1.8,80.6-0.9,121.7c0,0,210.2,92.6,429.9,88.5c244.7,0,444.7-88.5,444.7-88.5c0.7-41.1-2.2-84-2.2-115.3c-11.6-64.7-26.8-84.4-70.8-103c-48.4-20.4-102-44.2-150.1-64c-13.7-3.9-27.6-7.6-41.3-11.4C668.3,651.1,449.2,784.2,326.7,607.7z"/><path d="M387.6,534.9c0,0-11.7-5.1-19.5,4.8c-7.9,9.8-41.3,68-41.3,68s45.9,87.1,161.1,89c115.2,1.9,184.5-74.3,185.2-89c0.6-10.6-20.5-48.1-37.7-64.8c-6.4-6.3-21.1-5.2-23.7-5.2c-9.5,0.2-12.7,56.9-111.7,56.9C429.7,594.5,387.6,534.9,387.6,534.9z"/><path d="M608.1,47.3c0,0-33.7-37.8-108.2-37.3c-74.3,0.8-130.3,33-145.6,47.7c-15.4,14.7-51.2,60.2-46.9,115.3c4.3,55.1,6.3,62.5,9.4,87.3c1.4,11,25.4,41.6,39.3,63.8c26.4-26.3,38.6-27.1,73.6-38.8c62.4-20.8,95.6-131.8,145.5-113.7c28.9,10.4,55,100.5,74.9,124.5c26-30.1,27.4-28.2,27.4-28.2s9.1-194.2-33.7-210.7"/>
</symbol>
</svg>

